<svg id="Object" xmlns="http://www.w3.org/2000/svg" width="17.65" height="26" viewBox="0 0 17.65 26">
  <path id="Trazado_19" data-name="Trazado 19" d="M16.156,13.925c.042-.07.087-.143.148-.234a.337.337,0,0,0,.021-.036c.111-.21.283-.515.292-.531a9.374,9.374,0,0,0,1.033-4.3c0-.163,0-.322-.01-.482,0-.07-.009-.138-.013-.207L17.618,8c0-.044,0-.088-.009-.129,0-.056-.011-.113-.018-.168l-.013-.123c-.006-.058-.012-.116-.02-.175s-.013-.092-.021-.137l-.018-.118c-.01-.066-.02-.132-.031-.2s-.021-.105-.031-.157l-.028-.14c-.01-.049-.02-.1-.031-.145-.016-.07-.034-.137-.051-.206l-.031-.116c-.009-.036-.017-.071-.028-.109-.021-.075-.044-.148-.067-.222l-.028-.092c-.011-.036-.022-.074-.033-.105-.023-.074-.05-.145-.077-.216l-.034-.094c-.012-.034-.023-.067-.036-.1-.031-.08-.064-.158-.1-.236l-.038-.088c-.01-.025-.02-.049-.031-.072-.047-.1-.1-.207-.148-.31l-.036-.074c-.053-.1-.107-.2-.174-.322L16.463,4.1c-.061-.105-.125-.21-.2-.326l-.02-.032c-.067-.1-.137-.2-.214-.312,0,0-.017-.026-.021-.031-.077-.105-.156-.21-.234-.305l-.018-.025c-.085-.1-.172-.207-.267-.315s-.186-.2-.283-.3h0A8.772,8.772,0,0,0,8.826,0,8.444,8.444,0,0,0,0,8.826a9.472,9.472,0,0,0,1.187,4.589l.132.244a.2.2,0,0,0,.016.027l.222.341c.025.038.049.076.062.094l5.646,9.488h0l1.309,2.2A.391.391,0,0,0,8.906,26h0a.388.388,0,0,0,.336-.195l1.276-2.2h0l5.506-9.477c.049-.072.089-.137.131-.207Zm-2.386-5c0,.047-.012.093-.021.138l-.017.119c-.011.08-.022.161-.038.239-.012.06-.028.12-.045.18l-.032.127c-.013.056-.028.114-.045.168-.023.075-.05.147-.078.219l-.043.116c-.015.04-.028.082-.045.121-.038.091-.082.179-.126.266l-.038.078c-.013.031-.028.06-.044.089-.06.11-.126.217-.195.323-.025.043-.038.065-.053.086-.077.115-.161.224-.246.333l-.036.047c-.092.113-.195.227-.305.338a4.97,4.97,0,0,1-3.509,1.492l-.05,0a4.991,4.991,0,1,1,0-9.982l.051,0a4.959,4.959,0,0,1,3.492,1.476l.021.023c.113.114.21.223.3.328A.484.484,0,0,1,12.7,5.3c.089.114.174.224.251.339.013.02.027.042.039.064.081.127.148.234.208.344.016.031.031.06.044.091l.018.039c.059.115.105.208.146.3.017.04.032.082.047.125l.042.114c.028.072.055.145.078.219.017.054.031.111.045.169l.032.124c.017.061.033.121.045.184s.027.157.037.238l.018.119c.007.045.016.091.02.137a5.025,5.025,0,0,1,0,1.016Z" fill="#464646"/>
</svg>
