<svg id="Object" xmlns="http://www.w3.org/2000/svg" width="25.344" height="18.757" viewBox="0 0 25.344 18.757">
  <g id="Grupo_41" data-name="Grupo 41" transform="translate(0 0)">
    <path id="Trazado_20" data-name="Trazado 20" d="M35.155.272l8.806,9.992a2.638,2.638,0,0,0,3.958,0L56.574.445a.909.909,0,0,1,.245-.194A2.977,2.977,0,0,0,55.622,0H36.259A2.98,2.98,0,0,0,35.11.23C35.125.244,35.141.256,35.155.272Z" transform="translate(-33.268 0)" fill="#464646"/>
    <path id="Trazado_21" data-name="Trazado 21" d="M24.884,12.43a.936.936,0,0,1-.169.285l-8.654,9.819a4.517,4.517,0,0,1-6.777,0L.477,12.542c-.018-.02-.03-.043-.046-.064A2.974,2.974,0,0,0,0,14.019V27.544a2.991,2.991,0,0,0,2.991,2.991H22.353a2.991,2.991,0,0,0,2.991-2.991V14.019A2.976,2.976,0,0,0,24.884,12.43Z" transform="translate(0 -11.778)" fill="#464646"/>
  </g>
</svg>
